<?xml version="1.0" standalone="no"?>
<!DOCTYPE svg PUBLIC "-//W3C//DTD SVG 20010904//EN"
 "http://www.w3.org/TR/2001/REC-SVG-20010904/DTD/svg10.dtd">
<svg version="1.0" xmlns="http://www.w3.org/2000/svg"
 width="500.000000pt" height="500.000000pt" viewBox="0 0 500.000000 500.000000"
 preserveAspectRatio="xMidYMid meet">

<g transform="translate(0.000000,500.000000) scale(0.100000,-0.100000)"
fill="#000000" stroke="none">
<path d="M1340 4109 c-133 -15 -312 -82 -427 -159 -60 -41 -73 -57 -73 -90 0
-76 68 -92 151 -35 72 49 160 90 254 116 78 22 95 23 605 27 613 4 579 9 755
-105 61 -38 129 -82 153 -97 l43 -27 -137 -267 c-243 -473 -335 -646 -363
-682 -16 -19 -52 -47 -81 -62 l-52 -28 -297 0 c-336 0 -396 -6 -486 -49 -105
-49 -157 -111 -235 -281 -6 -12 -51 -14 -276 -16 -326 -2 -360 -8 -434 -84
-57 -59 -80 -118 -80 -209 0 -89 -6 -95 -71 -88 -62 8 -97 30 -122 78 -16 31
-18 55 -14 249 5 237 13 284 71 405 33 69 59 113 369 612 184 296 193 326 104
348 -18 5 -35 2 -50 -8 -32 -21 -463 -709 -537 -856 -87 -175 -104 -263 -105
-526 0 -191 2 -215 21 -261 48 -117 127 -173 257 -182 40 -3 75 -9 78 -13 3
-5 6 -30 8 -55 3 -63 35 -142 73 -183 50 -53 117 -78 233 -86 55 -3 103 -9
107 -11 4 -3 8 -20 8 -37 0 -54 56 -197 106 -269 129 -189 347 -298 569 -285
308 18 566 246 611 538 4 24 11 50 17 57 7 9 115 12 481 12 259 0 476 -4 482
-8 5 -4 20 -47 32 -97 39 -162 115 -281 238 -373 107 -80 260 -132 390 -132
126 0 318 63 380 125 22 22 25 31 19 66 -7 37 -4 43 39 89 25 27 51 61 58 75
9 20 18 25 48 25 23 0 43 7 53 18 15 17 40 96 52 165 3 20 11 37 18 37 7 0 93
2 193 4 99 3 199 9 222 15 67 18 123 68 162 145 l35 69 0 671 c0 666 0 672
-23 766 -39 159 -69 237 -164 420 -156 301 -230 395 -364 467 -116 62 -144 65
-529 70 -192 3 -427 0 -520 -4 -156 -9 -175 -12 -225 -37 -93 -46 -162 -127
-190 -223 -7 -24 -17 -43 -21 -43 -4 0 -80 48 -169 106 -215 142 -295 181
-390 194 -91 11 -955 11 -1060 -1z m2945 -154 c32 -9 80 -28 107 -42 48 -26
138 -112 138 -132 0 -7 -111 -11 -307 -13 -308 -3 -308 -3 -344 -27 -20 -14
-47 -41 -60 -60 -22 -31 -24 -47 -27 -169 -2 -75 -1 -151 3 -170 8 -43 76
-117 120 -132 19 -6 233 -40 475 -75 243 -34 444 -66 448 -70 4 -3 8 -53 10
-111 l4 -104 -115 0 c-91 0 -123 -4 -158 -19 -97 -43 -138 -121 -139 -259 0
-84 -2 -93 -17 -88 -10 3 -198 53 -418 111 -399 106 -400 106 -501 103 -94 -3
-106 -6 -180 -42 -57 -28 -98 -58 -146 -107 l-68 -69 0 654 c0 462 3 663 11
687 24 69 74 117 149 140 14 4 234 8 490 8 388 1 476 -2 525 -14z m421 -480
c71 -136 111 -231 101 -241 -9 -9 -838 114 -853 127 -18 15 -20 229 -2 247 9
9 95 12 346 10 l334 -3 74 -140z m144 -939 l0 -164 -77 19 c-43 11 -102 27
-130 35 l-53 15 0 89 c0 94 10 135 38 156 11 9 51 13 120 14 l102 0 0 -164z
m-1045 -47 c336 -88 1034 -269 1040 -269 3 0 5 -111 5 -246 0 -272 -2 -283
-64 -320 -26 -16 -56 -19 -199 -22 -184 -4 -217 0 -217 26 0 37 -53 174 -89
229 -187 289 -543 392 -846 244 -184 -90 -313 -247 -356 -433 l-14 -58 -487 0
-487 0 -11 43 c-37 144 -80 219 -184 322 -90 90 -168 136 -286 172 l-75 22
682 0 c465 1 699 5 735 12 97 21 165 64 283 179 192 188 218 192 570 99z
m-2533 -308 c-242 -69 -420 -254 -482 -498 l-11 -43 -93 0 c-79 0 -97 3 -120
21 -51 40 -56 63 -56 259 0 201 6 226 63 260 30 19 52 20 397 19 l365 0 -63
-18z m267 -484 c154 -102 80 -347 -104 -347 -209 0 -259 287 -64 370 42 17
124 6 168 -23z m2256 14 c138 -62 152 -246 26 -332 -52 -35 -150 -34 -204 1
-43 29 -87 108 -87 157 0 72 46 142 115 174 51 24 99 24 150 0z"/>
<path d="M3666 2999 c-34 -27 -36 -79 -4 -109 19 -18 35 -20 139 -20 131 0
154 9 165 67 5 26 1 37 -19 57 -25 25 -31 26 -140 26 -100 0 -117 -3 -141 -21z"/>
</g>
</svg>
